<svg width="325" height="176" viewBox="0 0 325 176" fill="none" xmlns="http://www.w3.org/2000/svg">
<g opacity="0.8">
<path fill-rule="evenodd" clip-rule="evenodd" d="M158.01 2.30836C162.407 0.774503 166.259 -0.569612 173.198 0.24672C186.963 1.86614 197.692 8.9511 209.028 28.5865C220.364 48.222 218.542 75.1448 210.242 81.0152C201.943 86.8856 193.441 87.4929 187.773 84.8613C186.49 84.2656 184.491 82.8609 181.906 81.0439C173.07 74.834 157.383 63.8089 140 63.8089L140 63.809C122.617 63.809 106.93 74.8341 98.0942 81.044C95.5089 82.861 93.5102 84.2657 92.2272 84.8614C86.5592 87.493 78.0573 86.8857 69.7578 81.0153C61.4583 75.1449 59.6364 48.2221 70.9723 28.5866C82.3083 8.95119 93.0369 1.86623 106.802 0.246816C113.741 -0.569517 117.593 0.774598 121.99 2.30845C126.315 3.81742 131.166 5.51001 140 5.50992L140 5.50983C148.834 5.50992 153.685 3.81732 158.01 2.30836Z" fill="#EEF1EE"/>
<ellipse cx="139.922" cy="55.0602" rx="6.47767" ry="2.83398" fill="#C4284D"/>
<circle cx="167.048" cy="55.8699" r="7.28738" fill="#0A9A94"/>
<circle cx="181.622" cy="46.1535" r="7.28738" fill="#FFFD4D"/>
<circle cx="198.626" cy="38.8661" r="7.28738" fill="#373FB7"/>
<circle cx="161.784" cy="38.866" r="5.26311" fill="#D9D9D9"/>
<circle cx="174.335" cy="29.9593" r="5.26311" fill="#D9D9D9"/>
<circle cx="187.695" cy="24.6962" r="5.26311" fill="#D9D9D9"/>
<circle cx="99.4369" cy="42.5097" r="15.3845" fill="#050407"/>
<path fill-rule="evenodd" clip-rule="evenodd" d="M114.239 38.304C114.619 39.6407 114.821 41.0514 114.821 42.5096H99.4369L99.4369 42.5096H114.821C114.821 43.9678 114.619 45.3785 114.239 46.7152C113.8 46.6125 113.341 46.5582 112.87 46.5582H109.485C106.172 46.5582 103.485 49.2445 103.485 52.5582V55.9427C103.485 56.4138 103.54 56.8723 103.642 57.3122C102.306 57.6912 100.895 57.8941 99.4369 57.8941V57.894C97.9788 57.894 96.568 57.6912 95.2313 57.3121C95.334 56.8723 95.3884 56.4138 95.3884 55.9426V52.5581C95.3884 49.2444 92.7021 46.5581 89.3884 46.5581H86.0039C85.5327 46.5581 85.0742 46.6125 84.6343 46.7152C84.2553 45.3785 84.0524 43.9677 84.0524 42.5095C84.0524 42.5096 84.0524 42.5096 84.0524 42.5097M84.0524 42.5095C84.0524 41.0514 84.2553 39.6407 84.6343 38.304C85.0742 38.4067 85.5327 38.461 86.0039 38.461H89.3884C92.7021 38.461 95.3884 35.7748 95.3884 32.461V29.0766C95.3884 28.6054 95.334 28.1469 95.2314 27.7071C96.568 27.328 97.9788 27.1252 99.4369 27.1252V27.1251C100.895 27.1251 102.306 27.328 103.642 27.707C103.54 28.1469 103.485 28.6053 103.485 29.0765V32.461C103.485 35.7747 106.172 38.461 109.485 38.461H112.87C113.341 38.461 113.8 38.4067 114.239 38.304" fill="#2D302D"/>
<path d="M24.076 98.0909H26.4943L29.733 105.996H29.8608L33.0994 98.0909H35.5178V109H33.6214V101.505H33.5202L30.5053 108.968H29.0884L26.0735 101.489H25.9723V109H24.076V98.0909ZM41.1534 109.16C40.3544 109.16 39.6619 108.984 39.076 108.632C38.4901 108.281 38.0355 107.789 37.7124 107.157C37.3928 106.525 37.233 105.786 37.233 104.941C37.233 104.096 37.3928 103.355 37.7124 102.72C38.0355 102.084 38.4901 101.591 39.076 101.239C39.6619 100.887 40.3544 100.712 41.1534 100.712C41.9524 100.712 42.6449 100.887 43.2308 101.239C43.8168 101.591 44.2695 102.084 44.5891 102.72C44.9123 103.355 45.0739 104.096 45.0739 104.941C45.0739 105.786 44.9123 106.525 44.5891 107.157C44.2695 107.789 43.8168 108.281 43.2308 108.632C42.6449 108.984 41.9524 109.16 41.1534 109.16ZM41.1641 107.615C41.5973 107.615 41.9595 107.496 42.2507 107.258C42.5419 107.017 42.7585 106.694 42.9006 106.289C43.0462 105.884 43.119 105.433 43.119 104.936C43.119 104.435 43.0462 103.982 42.9006 103.577C42.7585 103.169 42.5419 102.844 42.2507 102.603C41.9595 102.361 41.5973 102.24 41.1641 102.24C40.7202 102.24 40.3509 102.361 40.0561 102.603C39.7649 102.844 39.5465 103.169 39.4009 103.577C39.2589 103.982 39.1879 104.435 39.1879 104.936C39.1879 105.433 39.2589 105.884 39.4009 106.289C39.5465 106.694 39.7649 107.017 40.0561 107.258C40.3509 107.496 40.7202 107.615 41.1641 107.615ZM53.7404 100.818L50.8267 109H48.696L45.7823 100.818H47.8384L49.7188 106.896H49.804L51.6896 100.818H53.7404ZM58.4186 109.16C57.5983 109.16 56.8898 108.989 56.2932 108.648C55.7002 108.304 55.2439 107.817 54.9243 107.189C54.6047 106.557 54.4449 105.813 54.4449 104.957C54.4449 104.115 54.6047 103.377 54.9243 102.741C55.2474 102.102 55.6984 101.605 56.2773 101.25C56.8561 100.891 57.5361 100.712 58.3174 100.712C58.8216 100.712 59.2975 100.793 59.7449 100.957C60.1959 101.116 60.5937 101.365 60.9381 101.702C61.2861 102.04 61.5596 102.469 61.7584 102.991C61.9573 103.51 62.0567 104.128 62.0567 104.845V105.436H55.3504V104.137H60.2084C60.2048 103.767 60.1249 103.439 59.9687 103.151C59.8124 102.86 59.594 102.631 59.3135 102.464C59.0365 102.297 58.7133 102.214 58.344 102.214C57.9498 102.214 57.6036 102.31 57.3053 102.501C57.007 102.69 56.7744 102.938 56.6075 103.247C56.4442 103.553 56.3607 103.888 56.3572 104.254V105.388C56.3572 105.864 56.4442 106.273 56.6182 106.614C56.7922 106.951 57.0354 107.21 57.3479 107.391C57.6604 107.569 58.0262 107.658 58.4452 107.658C58.7258 107.658 58.9797 107.619 59.2069 107.54C59.4342 107.459 59.6313 107.34 59.7982 107.184C59.9651 107.027 60.0912 106.834 60.1764 106.603L61.9768 106.805C61.8632 107.281 61.6466 107.697 61.327 108.052C61.0109 108.403 60.6061 108.677 60.1125 108.872C59.6189 109.064 59.0542 109.16 58.4186 109.16Z" fill="black"/>
<path d="M121.052 98.0909V109H119.076V98.0909H121.052ZM125.035 104.206V109H123.107V100.818H124.95V102.208H125.046C125.234 101.75 125.534 101.386 125.946 101.116C126.362 100.847 126.875 100.712 127.486 100.712C128.05 100.712 128.542 100.832 128.961 101.074C129.384 101.315 129.71 101.665 129.941 102.123C130.176 102.581 130.291 103.137 130.287 103.79V109H128.359V104.089C128.359 103.542 128.217 103.114 127.933 102.805C127.652 102.496 127.264 102.342 126.766 102.342C126.429 102.342 126.129 102.416 125.866 102.565C125.607 102.711 125.403 102.922 125.254 103.199C125.108 103.476 125.035 103.812 125.035 104.206ZM136.333 100.818V102.31H131.63V100.818H136.333ZM132.791 98.858H134.719V106.539C134.719 106.798 134.758 106.997 134.836 107.136C134.918 107.271 135.025 107.363 135.156 107.413C135.287 107.462 135.433 107.487 135.593 107.487C135.714 107.487 135.824 107.478 135.923 107.461C136.026 107.443 136.104 107.427 136.157 107.413L136.482 108.92C136.379 108.956 136.232 108.995 136.04 109.037C135.852 109.08 135.621 109.105 135.348 109.112C134.865 109.126 134.43 109.053 134.043 108.893C133.656 108.73 133.348 108.478 133.121 108.137C132.897 107.796 132.787 107.37 132.791 106.859V98.858ZM141.48 109.16C140.66 109.16 139.951 108.989 139.355 108.648C138.762 108.304 138.305 107.817 137.986 107.189C137.666 106.557 137.506 105.813 137.506 104.957C137.506 104.115 137.666 103.377 137.986 102.741C138.309 102.102 138.76 101.605 139.339 101.25C139.918 100.891 140.598 100.712 141.379 100.712C141.883 100.712 142.359 100.793 142.806 100.957C143.257 101.116 143.655 101.365 144 101.702C144.348 102.04 144.621 102.469 144.82 102.991C145.019 103.51 145.118 104.128 145.118 104.845V105.436H138.412V104.137H143.27C143.266 103.767 143.186 103.439 143.03 103.151C142.874 102.86 142.656 102.631 142.375 102.464C142.098 102.297 141.775 102.214 141.406 102.214C141.011 102.214 140.665 102.31 140.367 102.501C140.069 102.69 139.836 102.938 139.669 103.247C139.506 103.553 139.422 103.888 139.419 104.254V105.388C139.419 105.864 139.506 106.273 139.68 106.614C139.854 106.951 140.097 107.21 140.409 107.391C140.722 107.569 141.088 107.658 141.507 107.658C141.787 107.658 142.041 107.619 142.268 107.54C142.496 107.459 142.693 107.34 142.86 107.184C143.027 107.027 143.153 106.834 143.238 106.603L145.038 106.805C144.925 107.281 144.708 107.697 144.388 108.052C144.072 108.403 143.668 108.677 143.174 108.872C142.68 109.064 142.116 109.16 141.48 109.16ZM146.75 109V100.818H148.619V102.182H148.704C148.854 101.71 149.109 101.346 149.472 101.09C149.837 100.831 150.255 100.701 150.723 100.701C150.83 100.701 150.949 100.706 151.08 100.717C151.215 100.724 151.327 100.737 151.416 100.754V102.528C151.334 102.5 151.204 102.475 151.027 102.453C150.853 102.429 150.684 102.416 150.521 102.416C150.169 102.416 149.853 102.493 149.573 102.645C149.296 102.794 149.077 103.002 148.918 103.268C148.758 103.535 148.678 103.842 148.678 104.19V109H146.75ZM154.905 109.165C154.386 109.165 153.919 109.073 153.504 108.888C153.092 108.7 152.765 108.423 152.524 108.057C152.286 107.691 152.167 107.24 152.167 106.704C152.167 106.243 152.252 105.861 152.422 105.559C152.593 105.257 152.826 105.016 153.12 104.835C153.415 104.653 153.747 104.517 154.116 104.424C154.489 104.328 154.875 104.259 155.272 104.217C155.752 104.167 156.141 104.123 156.439 104.083C156.737 104.041 156.954 103.977 157.089 103.892C157.227 103.803 157.296 103.666 157.296 103.482V103.45C157.296 103.048 157.177 102.738 156.94 102.517C156.702 102.297 156.359 102.187 155.911 102.187C155.439 102.187 155.065 102.29 154.788 102.496C154.514 102.702 154.329 102.945 154.234 103.226L152.433 102.97C152.575 102.473 152.81 102.058 153.136 101.724C153.463 101.386 153.862 101.134 154.335 100.967C154.807 100.797 155.329 100.712 155.901 100.712C156.295 100.712 156.687 100.758 157.078 100.85C157.469 100.942 157.826 101.095 158.149 101.308C158.472 101.518 158.731 101.804 158.926 102.166C159.125 102.528 159.225 102.981 159.225 103.524V109H157.371V107.876H157.307C157.19 108.103 157.025 108.316 156.812 108.515C156.602 108.711 156.338 108.869 156.018 108.989C155.702 109.107 155.331 109.165 154.905 109.165ZM155.405 107.748C155.793 107.748 156.128 107.672 156.412 107.519C156.696 107.363 156.915 107.157 157.067 106.901C157.224 106.646 157.302 106.367 157.302 106.065V105.101C157.241 105.151 157.138 105.197 156.993 105.239C156.851 105.282 156.691 105.319 156.513 105.351C156.336 105.383 156.16 105.412 155.986 105.436C155.812 105.461 155.661 105.483 155.533 105.5C155.246 105.539 154.988 105.603 154.761 105.692C154.534 105.781 154.354 105.905 154.223 106.065C154.092 106.221 154.026 106.424 154.026 106.672C154.026 107.027 154.155 107.295 154.415 107.477C154.674 107.658 155.004 107.748 155.405 107.748ZM164.733 109.16C163.916 109.16 163.214 108.98 162.628 108.622C162.046 108.263 161.597 107.768 161.281 107.136C160.968 106.5 160.812 105.768 160.812 104.941C160.812 104.11 160.972 103.377 161.291 102.741C161.611 102.102 162.062 101.605 162.644 101.25C163.23 100.891 163.923 100.712 164.722 100.712C165.386 100.712 165.974 100.834 166.485 101.079C167 101.321 167.41 101.663 167.715 102.107C168.021 102.548 168.195 103.062 168.237 103.652H166.394C166.32 103.258 166.142 102.929 165.862 102.667C165.585 102.4 165.214 102.267 164.748 102.267C164.354 102.267 164.008 102.374 163.71 102.587C163.411 102.796 163.179 103.098 163.012 103.492C162.849 103.886 162.767 104.359 162.767 104.909C162.767 105.467 162.849 105.946 163.012 106.347C163.175 106.745 163.404 107.052 163.699 107.269C163.997 107.482 164.347 107.588 164.748 107.588C165.033 107.588 165.286 107.535 165.51 107.429C165.737 107.319 165.927 107.161 166.08 106.955C166.233 106.749 166.338 106.498 166.394 106.203H168.237C168.191 106.782 168.021 107.295 167.726 107.743C167.431 108.187 167.03 108.535 166.522 108.787C166.014 109.036 165.418 109.16 164.733 109.16ZM173.906 100.818V102.31H169.203V100.818H173.906ZM170.364 98.858H172.292V106.539C172.292 106.798 172.331 106.997 172.41 107.136C172.491 107.271 172.598 107.363 172.729 107.413C172.861 107.462 173.006 107.487 173.166 107.487C173.287 107.487 173.397 107.478 173.496 107.461C173.599 107.443 173.677 107.427 173.731 107.413L174.056 108.92C173.953 108.956 173.805 108.995 173.613 109.037C173.425 109.08 173.194 109.105 172.921 109.112C172.438 109.126 172.003 109.053 171.616 108.893C171.229 108.73 170.922 108.478 170.694 108.137C170.471 107.796 170.361 107.37 170.364 106.859V98.858Z" fill="black"/>
<path d="M188.076 109V98.0909H192.167C193.005 98.0909 193.708 98.2472 194.276 98.5597C194.848 98.8722 195.279 99.3018 195.571 99.8487C195.865 100.392 196.013 101.01 196.013 101.702C196.013 102.402 195.865 103.023 195.571 103.567C195.276 104.11 194.841 104.538 194.266 104.85C193.69 105.159 192.982 105.314 192.14 105.314H189.429V103.689H191.874C192.364 103.689 192.765 103.604 193.078 103.434C193.39 103.263 193.621 103.029 193.77 102.73C193.923 102.432 193.999 102.089 193.999 101.702C193.999 101.315 193.923 100.974 193.77 100.68C193.621 100.385 193.388 100.156 193.072 99.9925C192.76 99.8256 192.357 99.7422 191.863 99.7422H190.052V109H188.076ZM197.644 109V100.818H199.572V109H197.644ZM198.614 99.657C198.308 99.657 198.045 99.5558 197.825 99.3533C197.605 99.1474 197.495 98.9006 197.495 98.6129C197.495 98.3217 197.605 98.0749 197.825 97.8725C198.045 97.6665 198.308 97.5636 198.614 97.5636C198.922 97.5636 199.185 97.6665 199.402 97.8725C199.622 98.0749 199.732 98.3217 199.732 98.6129C199.732 98.9006 199.622 99.1474 199.402 99.3533C199.185 99.5558 198.922 99.657 198.614 99.657ZM205.124 109.16C204.307 109.16 203.606 108.98 203.02 108.622C202.438 108.263 201.988 107.768 201.672 107.136C201.36 106.5 201.204 105.768 201.204 104.941C201.204 104.11 201.363 103.377 201.683 102.741C202.003 102.102 202.454 101.605 203.036 101.25C203.622 100.891 204.314 100.712 205.113 100.712C205.778 100.712 206.365 100.834 206.877 101.079C207.392 101.321 207.802 101.663 208.107 102.107C208.412 102.548 208.586 103.062 208.629 103.652H206.786C206.711 103.258 206.534 102.929 206.253 102.667C205.976 102.4 205.605 102.267 205.14 102.267C204.746 102.267 204.4 102.374 204.101 102.587C203.803 102.796 203.57 103.098 203.404 103.492C203.24 103.886 203.159 104.359 203.159 104.909C203.159 105.467 203.24 105.946 203.404 106.347C203.567 106.745 203.796 107.052 204.091 107.269C204.389 107.482 204.739 107.588 205.14 107.588C205.424 107.588 205.678 107.535 205.902 107.429C206.129 107.319 206.319 107.161 206.472 106.955C206.624 106.749 206.729 106.498 206.786 106.203H208.629C208.583 106.782 208.412 107.295 208.118 107.743C207.823 108.187 207.422 108.535 206.914 108.787C206.406 109.036 205.809 109.16 205.124 109.16ZM211.97 106.433L211.965 104.105H212.274L215.214 100.818H217.467L213.851 104.845H213.451L211.97 106.433ZM210.212 109V98.0909H212.141V109H210.212ZM215.347 109L212.684 105.277L213.984 103.918L217.654 109H215.347ZM227.688 105.559V100.818H229.616V109H227.747V107.546H227.661C227.477 108.004 227.173 108.379 226.751 108.67C226.331 108.961 225.815 109.107 225.2 109.107C224.664 109.107 224.19 108.988 223.778 108.75C223.37 108.508 223.05 108.158 222.819 107.7C222.589 107.239 222.473 106.681 222.473 106.028V100.818H224.401V105.729C224.401 106.248 224.544 106.66 224.828 106.965C225.112 107.271 225.485 107.423 225.946 107.423C226.23 107.423 226.506 107.354 226.772 107.216C227.038 107.077 227.257 106.871 227.427 106.598C227.601 106.321 227.688 105.974 227.688 105.559ZM231.599 112.068V100.818H233.495V102.171H233.607C233.707 101.972 233.847 101.761 234.028 101.537C234.209 101.31 234.454 101.116 234.763 100.957C235.072 100.793 235.466 100.712 235.946 100.712C236.578 100.712 237.148 100.873 237.656 101.196C238.167 101.516 238.572 101.99 238.87 102.619C239.172 103.244 239.323 104.011 239.323 104.92C239.323 105.818 239.176 106.582 238.881 107.21C238.586 107.839 238.185 108.318 237.677 108.648C237.169 108.979 236.594 109.144 235.951 109.144C235.482 109.144 235.093 109.066 234.785 108.909C234.476 108.753 234.227 108.565 234.039 108.345C233.854 108.121 233.71 107.91 233.607 107.711H233.527V112.068H231.599ZM233.49 104.909C233.49 105.438 233.565 105.902 233.714 106.299C233.867 106.697 234.085 107.008 234.369 107.232C234.657 107.452 235.005 107.562 235.413 107.562C235.839 107.562 236.196 107.448 236.484 107.221C236.771 106.99 236.988 106.676 237.134 106.278C237.283 105.877 237.357 105.42 237.357 104.909C237.357 104.401 237.285 103.95 237.139 103.556C236.993 103.162 236.777 102.853 236.489 102.629C236.201 102.406 235.843 102.294 235.413 102.294C235.001 102.294 234.651 102.402 234.364 102.619C234.076 102.835 233.858 103.139 233.709 103.529C233.563 103.92 233.49 104.38 233.49 104.909ZM245.427 97.5795L241.912 110.641H240.223L243.739 97.5795H245.427ZM246.743 109V98.0909H250.834C251.672 98.0909 252.375 98.2365 252.943 98.5277C253.515 98.8189 253.946 99.2273 254.238 99.7528C254.532 100.275 254.68 100.884 254.68 101.58C254.68 102.279 254.531 102.887 254.232 103.402C253.938 103.913 253.503 104.309 252.927 104.589C252.352 104.866 251.645 105.005 250.807 105.005H247.894V103.364H250.541C251.031 103.364 251.432 103.297 251.745 103.162C252.057 103.023 252.288 102.823 252.437 102.56C252.59 102.294 252.666 101.967 252.666 101.58C252.666 101.193 252.59 100.863 252.437 100.589C252.285 100.312 252.052 100.103 251.739 99.9606C251.427 99.815 251.024 99.7422 250.53 99.7422H248.719V109H246.743ZM252.379 104.057L255.079 109H252.874L250.221 104.057H252.379ZM259.919 109.16C259.098 109.16 258.39 108.989 257.793 108.648C257.2 108.304 256.744 107.817 256.424 107.189C256.105 106.557 255.945 105.813 255.945 104.957C255.945 104.115 256.105 103.377 256.424 102.741C256.747 102.102 257.198 101.605 257.777 101.25C258.356 100.891 259.036 100.712 259.817 100.712C260.322 100.712 260.797 100.793 261.245 100.957C261.696 101.116 262.094 101.365 262.438 101.702C262.786 102.04 263.06 102.469 263.258 102.991C263.457 103.51 263.557 104.128 263.557 104.845V105.436H256.85V104.137H261.708C261.705 103.767 261.625 103.439 261.469 103.151C261.312 102.86 261.094 102.631 260.813 102.464C260.536 102.297 260.213 102.214 259.844 102.214C259.45 102.214 259.104 102.31 258.805 102.501C258.507 102.69 258.274 102.938 258.108 103.247C257.944 103.553 257.861 103.888 257.857 104.254V105.388C257.857 105.864 257.944 106.273 258.118 106.614C258.292 106.951 258.535 107.21 258.848 107.391C259.16 107.569 259.526 107.658 259.945 107.658C260.226 107.658 260.48 107.619 260.707 107.54C260.934 107.459 261.131 107.34 261.298 107.184C261.465 107.027 261.591 106.834 261.676 106.603L263.477 106.805C263.363 107.281 263.147 107.697 262.827 108.052C262.511 108.403 262.106 108.677 261.612 108.872C261.119 109.064 260.554 109.16 259.919 109.16ZM267.116 98.0909V109H265.188V98.0909H267.116ZM272.721 109.16C271.901 109.16 271.193 108.989 270.596 108.648C270.003 108.304 269.547 107.817 269.227 107.189C268.907 106.557 268.748 105.813 268.748 104.957C268.748 104.115 268.907 103.377 269.227 102.741C269.55 102.102 270.001 101.605 270.58 101.25C271.159 100.891 271.839 100.712 272.62 100.712C273.124 100.712 273.6 100.793 274.048 100.957C274.499 101.116 274.896 101.365 275.241 101.702C275.589 102.04 275.862 102.469 276.061 102.991C276.26 103.51 276.359 104.128 276.359 104.845V105.436H269.653V104.137H274.511C274.508 103.767 274.428 103.439 274.271 103.151C274.115 102.86 273.897 102.631 273.616 102.464C273.339 102.297 273.016 102.214 272.647 102.214C272.253 102.214 271.906 102.31 271.608 102.501C271.31 102.69 271.077 102.938 270.91 103.247C270.747 103.553 270.663 103.888 270.66 104.254V105.388C270.66 105.864 270.747 106.273 270.921 106.614C271.095 106.951 271.338 107.21 271.651 107.391C271.963 107.569 272.329 107.658 272.748 107.658C273.028 107.658 273.282 107.619 273.51 107.54C273.737 107.459 273.934 107.34 274.101 107.184C274.268 107.027 274.394 106.834 274.479 106.603L276.28 106.805C276.166 107.281 275.949 107.697 275.63 108.052C275.314 108.403 274.909 108.677 274.415 108.872C273.922 109.064 273.357 109.16 272.721 109.16ZM280.345 109.165C279.827 109.165 279.36 109.073 278.944 108.888C278.532 108.7 278.206 108.423 277.964 108.057C277.726 107.691 277.607 107.24 277.607 106.704C277.607 106.243 277.692 105.861 277.863 105.559C278.033 105.257 278.266 105.016 278.561 104.835C278.855 104.653 279.188 104.517 279.557 104.424C279.93 104.328 280.315 104.259 280.713 104.217C281.192 104.167 281.581 104.123 281.879 104.083C282.178 104.041 282.394 103.977 282.529 103.892C282.668 103.803 282.737 103.666 282.737 103.482V103.45C282.737 103.048 282.618 102.738 282.38 102.517C282.142 102.297 281.799 102.187 281.352 102.187C280.88 102.187 280.505 102.29 280.228 102.496C279.955 102.702 279.77 102.945 279.674 103.226L277.874 102.97C278.016 102.473 278.25 102.058 278.577 101.724C278.903 101.386 279.303 101.134 279.775 100.967C280.248 100.797 280.77 100.712 281.341 100.712C281.735 100.712 282.128 100.758 282.518 100.85C282.909 100.942 283.266 101.095 283.589 101.308C283.912 101.518 284.172 101.804 284.367 102.166C284.566 102.528 284.665 102.981 284.665 103.524V109H282.811V107.876H282.748C282.63 108.103 282.465 108.316 282.252 108.515C282.043 108.711 281.778 108.869 281.458 108.989C281.142 109.107 280.771 109.165 280.345 109.165ZM280.846 107.748C281.233 107.748 281.569 107.672 281.853 107.519C282.137 107.363 282.355 107.157 282.508 106.901C282.664 106.646 282.742 106.367 282.742 106.065V105.101C282.682 105.151 282.579 105.197 282.433 105.239C282.291 105.282 282.131 105.319 281.954 105.351C281.776 105.383 281.6 105.412 281.426 105.436C281.252 105.461 281.102 105.483 280.974 105.5C280.686 105.539 280.429 105.603 280.201 105.692C279.974 105.781 279.795 105.905 279.663 106.065C279.532 106.221 279.466 106.424 279.466 106.672C279.466 107.027 279.596 107.295 279.855 107.477C280.114 107.658 280.445 107.748 280.846 107.748ZM293.071 102.981L291.313 103.173C291.263 102.995 291.176 102.828 291.052 102.672C290.931 102.516 290.768 102.39 290.562 102.294C290.356 102.198 290.104 102.15 289.805 102.15C289.404 102.15 289.067 102.237 288.793 102.411C288.523 102.585 288.39 102.81 288.394 103.087C288.39 103.325 288.477 103.519 288.655 103.668C288.836 103.817 289.134 103.94 289.55 104.036L290.945 104.334C291.719 104.501 292.295 104.765 292.671 105.127C293.051 105.49 293.243 105.964 293.246 106.55C293.243 107.065 293.092 107.519 292.794 107.913C292.499 108.304 292.089 108.609 291.563 108.83C291.038 109.05 290.434 109.16 289.752 109.16C288.751 109.16 287.945 108.95 287.334 108.531C286.723 108.109 286.359 107.521 286.242 106.768L288.122 106.587C288.207 106.956 288.388 107.235 288.665 107.423C288.942 107.612 289.303 107.706 289.747 107.706C290.205 107.706 290.572 107.612 290.849 107.423C291.13 107.235 291.27 107.002 291.27 106.725C291.27 106.491 291.18 106.298 290.999 106.145C290.821 105.992 290.544 105.875 290.168 105.793L288.772 105.5C287.987 105.337 287.407 105.062 287.03 104.675C286.654 104.284 286.467 103.79 286.471 103.194C286.467 102.69 286.604 102.253 286.881 101.884C287.162 101.511 287.55 101.223 288.048 101.021C288.548 100.815 289.125 100.712 289.779 100.712C290.738 100.712 291.492 100.916 292.043 101.324C292.597 101.733 292.939 102.285 293.071 102.981ZM298.459 109.16C297.638 109.16 296.93 108.989 296.333 108.648C295.74 108.304 295.284 107.817 294.964 107.189C294.645 106.557 294.485 105.813 294.485 104.957C294.485 104.115 294.645 103.377 294.964 102.741C295.287 102.102 295.738 101.605 296.317 101.25C296.896 100.891 297.576 100.712 298.357 100.712C298.862 100.712 299.338 100.793 299.785 100.957C300.236 101.116 300.634 101.365 300.978 101.702C301.326 102.04 301.6 102.469 301.798 102.991C301.997 103.51 302.097 104.128 302.097 104.845V105.436H295.39V104.137H300.248C300.245 103.767 300.165 103.439 300.009 103.151C299.852 102.86 299.634 102.631 299.354 102.464C299.077 102.297 298.753 102.214 298.384 102.214C297.99 102.214 297.644 102.31 297.345 102.501C297.047 102.69 296.814 102.938 296.648 103.247C296.484 103.553 296.401 103.888 296.397 104.254V105.388C296.397 105.864 296.484 106.273 296.658 106.614C296.832 106.951 297.075 107.21 297.388 107.391C297.7 107.569 298.066 107.658 298.485 107.658C298.766 107.658 299.02 107.619 299.247 107.54C299.474 107.459 299.671 107.34 299.838 107.184C300.005 107.027 300.131 106.834 300.216 106.603L302.017 106.805C301.903 107.281 301.687 107.697 301.367 108.052C301.051 108.403 300.646 108.677 300.153 108.872C299.659 109.064 299.094 109.16 298.459 109.16Z" fill="black"/>
<path d="M222.076 51V40.0909H226.167C227.005 40.0909 227.708 40.2472 228.276 40.5597C228.848 40.8722 229.279 41.3018 229.571 41.8487C229.865 42.392 230.013 43.0099 230.013 43.7024C230.013 44.402 229.865 45.0234 229.571 45.5668C229.276 46.1101 228.841 46.538 228.266 46.8505C227.69 47.1594 226.982 47.3139 226.14 47.3139H223.429V45.6893H225.874C226.364 45.6893 226.765 45.604 227.078 45.4336C227.39 45.2631 227.621 45.0288 227.77 44.7305C227.923 44.4322 227.999 44.0895 227.999 43.7024C227.999 43.3153 227.923 42.9744 227.77 42.6797C227.621 42.3849 227.388 42.1559 227.072 41.9925C226.76 41.8256 226.357 41.7422 225.863 41.7422H224.052V51H222.076ZM236.859 47.5589V42.8182H238.787V51H236.918V49.5458H236.832C236.648 50.0039 236.344 50.3786 235.921 50.6697C235.502 50.9609 234.986 51.1065 234.371 51.1065C233.835 51.1065 233.361 50.9876 232.949 50.7496C232.541 50.5082 232.221 50.1584 231.99 49.7003C231.759 49.2386 231.644 48.6811 231.644 48.0277V42.8182H233.572V47.7294C233.572 48.2479 233.714 48.6598 233.998 48.9652C234.283 49.2706 234.655 49.4233 235.117 49.4233C235.401 49.4233 235.676 49.354 235.943 49.2156C236.209 49.0771 236.427 48.8711 236.598 48.5977C236.772 48.3207 236.859 47.9744 236.859 47.5589ZM247.237 44.9808L245.479 45.1726C245.429 44.995 245.342 44.8281 245.218 44.6719C245.097 44.5156 244.934 44.3896 244.728 44.2937C244.522 44.1978 244.27 44.1499 243.971 44.1499C243.57 44.1499 243.233 44.2369 242.959 44.4109C242.689 44.5849 242.556 44.8104 242.56 45.0874C242.556 45.3253 242.643 45.5188 242.821 45.668C243.002 45.8171 243.3 45.9396 243.716 46.0355L245.111 46.3338C245.885 46.5007 246.461 46.7653 246.837 47.1275C247.217 47.4897 247.409 47.9638 247.412 48.5497C247.409 49.0646 247.258 49.5192 246.96 49.9134C246.665 50.304 246.255 50.6094 245.729 50.8295C245.204 51.0497 244.6 51.1598 243.918 51.1598C242.917 51.1598 242.111 50.9503 241.5 50.5312C240.889 50.1087 240.525 49.521 240.408 48.7681L242.288 48.587C242.373 48.9563 242.555 49.2351 242.831 49.4233C243.108 49.6115 243.469 49.7056 243.913 49.7056C244.371 49.7056 244.738 49.6115 245.015 49.4233C245.296 49.2351 245.436 49.0025 245.436 48.7255C245.436 48.4911 245.346 48.2976 245.165 48.1449C244.987 47.9922 244.71 47.875 244.334 47.7933L242.938 47.5004C242.153 47.337 241.573 47.0618 241.196 46.6747C240.82 46.2841 240.633 45.7905 240.637 45.1939C240.633 44.6896 240.77 44.2528 241.047 43.8835C241.328 43.5107 241.716 43.223 242.214 43.0206C242.714 42.8146 243.291 42.7116 243.945 42.7116C244.904 42.7116 245.658 42.9158 246.209 43.3242C246.763 43.7326 247.105 44.2848 247.237 44.9808ZM250.931 46.206V51H249.002V40.0909H250.888V44.2085H250.984C251.176 43.7468 251.472 43.3828 251.874 43.1165C252.278 42.8466 252.793 42.7116 253.418 42.7116C253.987 42.7116 254.482 42.8306 254.904 43.0685C255.327 43.3065 255.654 43.6545 255.885 44.1126C256.119 44.5707 256.236 45.13 256.236 45.7905V51H254.308V46.0888C254.308 45.5384 254.166 45.1104 253.882 44.805C253.601 44.4961 253.207 44.3416 252.699 44.3416C252.358 44.3416 252.053 44.4162 251.783 44.5653C251.517 44.7109 251.307 44.9222 251.154 45.1992C251.005 45.4762 250.931 45.8118 250.931 46.206ZM266.008 42.8182V44.3097H261.305V42.8182H266.008ZM262.466 40.858H264.394V48.5391C264.394 48.7983 264.433 48.9972 264.511 49.1357C264.593 49.2706 264.699 49.3629 264.831 49.4126C264.962 49.4624 265.108 49.4872 265.268 49.4872C265.388 49.4872 265.498 49.4783 265.598 49.4606C265.701 49.4428 265.779 49.4268 265.832 49.4126L266.157 50.9201C266.054 50.9556 265.907 50.9947 265.715 51.0373C265.527 51.0799 265.296 51.1048 265.023 51.1119C264.54 51.1261 264.105 51.0533 263.718 50.8935C263.33 50.7301 263.023 50.478 262.796 50.1371C262.572 49.7962 262.462 49.37 262.466 48.8587V40.858ZM271.102 51.1598C270.303 51.1598 269.61 50.984 269.024 50.6325C268.438 50.2809 267.984 49.7891 267.661 49.157C267.341 48.5249 267.181 47.7862 267.181 46.9411C267.181 46.0959 267.341 45.3555 267.661 44.7198C267.984 44.0842 268.438 43.5906 269.024 43.239C269.61 42.8874 270.303 42.7116 271.102 42.7116C271.901 42.7116 272.593 42.8874 273.179 43.239C273.765 43.5906 274.218 44.0842 274.537 44.7198C274.861 45.3555 275.022 46.0959 275.022 46.9411C275.022 47.7862 274.861 48.5249 274.537 49.157C274.218 49.7891 273.765 50.2809 273.179 50.6325C272.593 50.984 271.901 51.1598 271.102 51.1598ZM271.112 49.6151C271.546 49.6151 271.908 49.4961 272.199 49.2582C272.49 49.0167 272.707 48.6935 272.849 48.2887C272.994 47.8839 273.067 47.4329 273.067 46.9357C273.067 46.435 272.994 45.9822 272.849 45.5774C272.707 45.169 272.49 44.8441 272.199 44.6026C271.908 44.3612 271.546 44.2404 271.112 44.2404C270.668 44.2404 270.299 44.3612 270.004 44.6026C269.713 44.8441 269.495 45.169 269.349 45.5774C269.207 45.9822 269.136 46.435 269.136 46.9357C269.136 47.4329 269.207 47.8839 269.349 48.2887C269.495 48.6935 269.713 49.0167 270.004 49.2582C270.299 49.4961 270.668 49.6151 271.112 49.6151ZM286.393 43.0898C286.344 42.6246 286.134 42.2624 285.765 42.0032C285.399 41.744 284.923 41.6143 284.337 41.6143C283.925 41.6143 283.572 41.6765 283.277 41.8008C282.982 41.9251 282.757 42.0937 282.601 42.3068C282.444 42.5199 282.365 42.7631 282.361 43.0366C282.361 43.2638 282.412 43.4609 282.515 43.6278C282.622 43.7947 282.766 43.9368 282.947 44.054C283.128 44.1676 283.329 44.2635 283.549 44.3416C283.769 44.4197 283.991 44.4854 284.215 44.5387L285.237 44.7944C285.649 44.8903 286.045 45.0199 286.425 45.1832C286.809 45.3466 287.151 45.5526 287.453 45.8011C287.759 46.0497 288 46.3498 288.178 46.7013C288.355 47.0529 288.444 47.4648 288.444 47.9371C288.444 48.5763 288.281 49.1392 287.954 49.6257C287.627 50.1087 287.155 50.4869 286.537 50.7603C285.923 51.0302 285.179 51.1651 284.305 51.1651C283.456 51.1651 282.72 51.0337 282.095 50.771C281.473 50.5082 280.987 50.1246 280.635 49.6204C280.287 49.1161 280.099 48.5018 280.07 47.7773H282.015C282.043 48.1573 282.16 48.4734 282.366 48.7255C282.572 48.9776 282.84 49.1658 283.171 49.2901C283.504 49.4144 283.877 49.4766 284.289 49.4766C284.719 49.4766 285.095 49.4126 285.419 49.2848C285.745 49.1534 286.001 48.9723 286.186 48.7415C286.37 48.5071 286.464 48.2337 286.468 47.9212C286.464 47.6371 286.381 47.4027 286.218 47.218C286.054 47.0298 285.825 46.8736 285.53 46.7493C285.239 46.6214 284.898 46.5078 284.508 46.4084L283.267 46.0888C282.368 45.858 281.658 45.5082 281.136 45.0394C280.617 44.5671 280.358 43.9403 280.358 43.1591C280.358 42.5163 280.532 41.9535 280.88 41.4705C281.232 40.9876 281.709 40.6129 282.313 40.3466C282.917 40.0767 283.6 39.9418 284.364 39.9418C285.138 39.9418 285.816 40.0767 286.399 40.3466C286.985 40.6129 287.444 40.984 287.778 41.4599C288.112 41.9322 288.284 42.4755 288.295 43.0898H286.393ZM290.121 54.0682V42.8182H292.017V44.1712H292.129C292.228 43.9723 292.369 43.761 292.55 43.5373C292.731 43.31 292.976 43.1165 293.285 42.9567C293.594 42.7933 293.988 42.7116 294.467 42.7116C295.099 42.7116 295.669 42.8732 296.177 43.1964C296.688 43.516 297.093 43.9901 297.392 44.6186C297.693 45.2436 297.844 46.0107 297.844 46.9197C297.844 47.8182 297.697 48.5817 297.402 49.2102C297.108 49.8388 296.706 50.3182 296.198 50.6484C295.691 50.9787 295.115 51.1438 294.473 51.1438C294.004 51.1438 293.615 51.0657 293.306 50.9094C292.997 50.7532 292.748 50.565 292.56 50.3448C292.376 50.1211 292.232 49.9098 292.129 49.7109H292.049V54.0682H290.121ZM292.012 46.9091C292.012 47.4382 292.086 47.9016 292.235 48.2994C292.388 48.6971 292.606 49.0078 292.891 49.2315C293.178 49.4517 293.526 49.5618 293.935 49.5618C294.361 49.5618 294.718 49.4482 295.005 49.2209C295.293 48.9901 295.509 48.6758 295.655 48.2781C295.804 47.8768 295.879 47.4205 295.879 46.9091C295.879 46.4013 295.806 45.9503 295.66 45.5561C295.515 45.1619 295.298 44.853 295.011 44.6293C294.723 44.4055 294.364 44.2937 293.935 44.2937C293.523 44.2937 293.173 44.402 292.885 44.6186C292.598 44.8352 292.379 45.1388 292.23 45.5295C292.084 45.9201 292.012 46.38 292.012 46.9091ZM303.118 51.1598C302.297 51.1598 301.589 50.9893 300.992 50.6484C300.399 50.304 299.943 49.8175 299.623 49.1889C299.304 48.5568 299.144 47.8129 299.144 46.957C299.144 46.1154 299.304 45.3768 299.623 44.7411C299.947 44.1019 300.398 43.6048 300.976 43.2496C301.555 42.891 302.235 42.7116 303.017 42.7116C303.521 42.7116 303.997 42.7933 304.444 42.9567C304.895 43.1165 305.293 43.3651 305.637 43.7024C305.985 44.0398 306.259 44.4695 306.458 44.9915C306.657 45.5099 306.756 46.1278 306.756 46.8452V47.4364H300.05V46.1367H304.908C304.904 45.7674 304.824 45.4389 304.668 45.1513C304.512 44.8601 304.293 44.631 304.013 44.4641C303.736 44.2972 303.413 44.2138 303.043 44.2138C302.649 44.2138 302.303 44.3097 302.005 44.5014C301.706 44.6896 301.474 44.9382 301.307 45.2472C301.143 45.5526 301.06 45.8881 301.056 46.2539V47.3885C301.056 47.8643 301.143 48.2727 301.317 48.6136C301.491 48.951 301.735 49.2102 302.047 49.3913C302.36 49.5689 302.725 49.6577 303.144 49.6577C303.425 49.6577 303.679 49.6186 303.906 49.5405C304.133 49.4588 304.331 49.3398 304.497 49.1836C304.664 49.0273 304.79 48.8338 304.876 48.603L306.676 48.8054C306.562 49.2812 306.346 49.6967 306.026 50.0518C305.71 50.4034 305.305 50.6768 304.812 50.8722C304.318 51.0639 303.753 51.1598 303.118 51.1598ZM310.742 51.1651C310.223 51.1651 309.756 51.0728 309.341 50.8881C308.929 50.6999 308.602 50.4229 308.361 50.0572C308.123 49.6914 308.004 49.2404 308.004 48.7042C308.004 48.2425 308.089 47.8608 308.259 47.5589C308.43 47.2571 308.662 47.0156 308.957 46.8345C309.252 46.6534 309.584 46.5167 309.953 46.4244C310.326 46.3285 310.711 46.2592 311.109 46.2166C311.589 46.1669 311.977 46.1225 312.276 46.0835C312.574 46.0408 312.791 45.9769 312.926 45.8917C313.064 45.8029 313.133 45.6662 313.133 45.4815V45.4496C313.133 45.0483 313.014 44.7376 312.776 44.5174C312.539 44.2972 312.196 44.1871 311.748 44.1871C311.276 44.1871 310.901 44.2901 310.624 44.4961C310.351 44.7021 310.166 44.9453 310.07 45.2259L308.27 44.9702C308.412 44.473 308.646 44.0575 308.973 43.7237C309.3 43.3864 309.699 43.1342 310.172 42.9673C310.644 42.7969 311.166 42.7116 311.738 42.7116C312.132 42.7116 312.524 42.7578 312.915 42.8501C313.306 42.9425 313.662 43.0952 313.986 43.3082C314.309 43.5178 314.568 43.8036 314.763 44.1658C314.962 44.5281 315.062 44.9808 315.062 45.5241V51H313.208V49.8761H313.144C313.027 50.1033 312.862 50.3164 312.649 50.5153C312.439 50.7106 312.175 50.8686 311.855 50.9893C311.539 51.1065 311.168 51.1651 310.742 51.1651ZM311.242 49.7482C311.629 49.7482 311.965 49.6719 312.249 49.5192C312.533 49.3629 312.752 49.157 312.904 48.9013C313.061 48.6456 313.139 48.3668 313.139 48.065V47.1009C313.078 47.1506 312.975 47.1967 312.83 47.2393C312.688 47.282 312.528 47.3192 312.35 47.3512C312.173 47.3832 311.997 47.4116 311.823 47.4364C311.649 47.4613 311.498 47.4826 311.37 47.5004C311.083 47.5394 310.825 47.6033 310.598 47.6921C310.371 47.7809 310.191 47.9052 310.06 48.065C309.928 48.2212 309.863 48.4237 309.863 48.6722C309.863 49.0273 309.992 49.2955 310.252 49.4766C310.511 49.6577 310.841 49.7482 311.242 49.7482ZM318.758 48.4325L318.753 46.1048H319.062L322.002 42.8182H324.256L320.639 46.8452H320.239L318.758 48.4325ZM317.001 51V40.0909H318.929V51H317.001ZM322.135 51L319.472 47.2766L320.772 45.9183L324.442 51H322.135Z" fill="black"/>
<rect x="31" y="120" width="25" height="25" rx="8.4375" fill="#2D302D" stroke="#1E1E1E" stroke-width="1.6875"/>
<path d="M39.5009 138L36.6916 128.182H38.9592L40.5843 135.004H40.6658L42.4588 128.182H44.4004L46.1886 135.018H46.2749L47.9 128.182H50.1676L47.3583 138H45.3352L43.4656 131.581H43.3888L41.524 138H39.5009Z" fill="white"/>
<rect x="1" y="150" width="25" height="25" rx="8.4375" fill="#2D302D" stroke="#1E1E1E" stroke-width="1.6875"/>
<path d="M11.1543 167.891H8.9299L12.3193 158.073H14.9943L18.3789 167.891H16.1545L13.6952 160.317H13.6185L11.1543 167.891ZM11.0153 164.032H16.2696V165.653H11.0153V164.032Z" fill="white"/>
<rect x="31" y="150" width="25" height="25" rx="8.4375" fill="#2D302D" stroke="#1E1E1E" stroke-width="1.6875"/>
<path d="M45.1795 160.474C45.1412 160.088 44.9766 159.787 44.6857 159.573C44.3949 159.359 44.0002 159.252 43.5016 159.252C43.1628 159.252 42.8768 159.3 42.6435 159.396C42.4102 159.488 42.2312 159.618 42.1065 159.784C41.9851 159.95 41.9244 160.139 41.9244 160.35C41.918 160.525 41.9547 160.679 42.0346 160.81C42.1177 160.941 42.2312 161.054 42.375 161.15C42.5188 161.243 42.685 161.324 42.8736 161.395C43.0621 161.462 43.2635 161.519 43.4776 161.567L44.3597 161.778C44.788 161.874 45.1811 162.002 45.5391 162.162C45.897 162.322 46.207 162.518 46.4691 162.751C46.7312 162.985 46.9341 163.26 47.0779 163.576C47.225 163.892 47.3001 164.255 47.3033 164.664C47.3001 165.265 47.1467 165.786 46.843 166.227C46.5426 166.665 46.108 167.005 45.5391 167.248C44.9734 167.488 44.291 167.608 43.492 167.608C42.6994 167.608 42.0091 167.486 41.421 167.243C40.8361 167.001 40.3791 166.641 40.0499 166.165C39.7239 165.685 39.5529 165.093 39.5369 164.386H41.5456C41.568 164.715 41.6623 164.99 41.8285 165.211C41.9979 165.428 42.2232 165.593 42.5044 165.705C42.7889 165.813 43.1101 165.868 43.468 165.868C43.8196 165.868 44.1248 165.816 44.3837 165.714C44.6458 165.612 44.8487 165.47 44.9925 165.287C45.1364 165.105 45.2083 164.896 45.2083 164.659C45.2083 164.439 45.1428 164.254 45.0117 164.103C44.8839 163.953 44.6953 163.825 44.446 163.72C44.1999 163.614 43.8979 163.518 43.54 163.432L42.4709 163.164C41.6431 162.962 40.9895 162.648 40.5101 162.219C40.0307 161.791 39.7926 161.214 39.7958 160.489C39.7926 159.894 39.9508 159.375 40.2704 158.931C40.5932 158.486 41.0359 158.14 41.5984 157.89C42.1609 157.641 42.8001 157.516 43.516 157.516C44.2447 157.516 44.8807 157.641 45.424 157.89C45.9705 158.14 46.3956 158.486 46.6992 158.931C47.0028 159.375 47.1594 159.889 47.169 160.474H45.1795Z" fill="white"/>
<rect x="61" y="150" width="25" height="25" rx="8.4375" fill="#2D302D" stroke="#1E1E1E" stroke-width="1.6875"/>
<path d="M72.8625 167.891H69.382V158.073H72.8912C73.8788 158.073 74.729 158.27 75.4417 158.663C76.1544 159.053 76.7025 159.614 77.086 160.346C77.4727 161.077 77.6661 161.953 77.6661 162.973C77.6661 163.995 77.4727 164.874 77.086 165.609C76.7025 166.344 76.1512 166.909 75.4321 167.302C74.7162 167.695 73.8596 167.891 72.8625 167.891ZM71.4578 166.113H72.7762C73.3898 166.113 73.906 166.004 74.3247 165.787C74.7465 165.566 75.0629 165.226 75.2739 164.766C75.488 164.302 75.5951 163.705 75.5951 162.973C75.5951 162.247 75.488 161.654 75.2739 161.194C75.0629 160.734 74.7481 160.395 74.3295 160.178C73.9108 159.96 73.3946 159.852 72.781 159.852H71.4578V166.113Z" fill="white"/>
<rect x="134" y="120" width="25" height="25" rx="8.4375" fill="#0A9A94" stroke="#1E1E1E" stroke-width="1.6875"/>
<path d="M147.766 128.182H149.818V135.028C149.818 135.661 149.675 136.21 149.391 136.677C149.11 137.143 148.718 137.503 148.216 137.756C147.715 138.008 147.131 138.134 146.467 138.134C145.875 138.134 145.338 138.03 144.856 137.823C144.376 137.612 143.996 137.292 143.715 136.864C143.434 136.432 143.295 135.891 143.298 135.239H145.364C145.37 135.498 145.423 135.72 145.522 135.905C145.624 136.087 145.763 136.228 145.939 136.327C146.118 136.423 146.329 136.471 146.572 136.471C146.828 136.471 147.043 136.416 147.219 136.308C147.398 136.196 147.534 136.033 147.627 135.819C147.719 135.605 147.766 135.341 147.766 135.028V128.182Z" fill="white"/>
<rect x="232" y="122" width="25" height="25" rx="8.4375" fill="#FFFD4D" stroke="#1E1E1E" stroke-width="1.6875"/>
<path d="M241.03 140V130.182H243.106V134.511H243.236L246.769 130.182H249.257L245.614 134.578L249.3 140H246.817L244.127 135.963L243.106 137.21V140H241.03Z" fill="black"/>
<rect x="243" y="55" width="59" height="25" rx="8.4375" fill="#373FB7" stroke="#1E1E1E" stroke-width="1.6875"/>
<path d="M258.074 66.0055C258.035 65.6188 257.871 65.3184 257.58 65.1042C257.289 64.8901 256.894 64.783 256.396 64.783C256.057 64.783 255.771 64.831 255.538 64.9268C255.304 65.0195 255.125 65.149 255.001 65.3152C254.879 65.4814 254.818 65.6699 254.818 65.8809C254.812 66.0566 254.849 66.21 254.929 66.3411C255.012 66.4721 255.125 66.5856 255.269 66.6815C255.413 66.7741 255.579 66.8556 255.768 66.926C255.956 66.9931 256.158 67.0506 256.372 67.0985L257.254 67.3095C257.682 67.4054 258.075 67.5332 258.433 67.693C258.791 67.8528 259.101 68.0494 259.363 68.2827C259.625 68.516 259.828 68.7908 259.972 69.1072C260.119 69.4237 260.194 69.7864 260.197 70.1955C260.194 70.7963 260.041 71.3173 259.737 71.7583C259.437 72.1962 259.002 72.5366 258.433 72.7795C257.867 73.0192 257.185 73.139 256.386 73.139C255.593 73.139 254.903 73.0176 254.315 72.7747C253.73 72.5318 253.273 72.1722 252.944 71.696C252.618 71.2166 252.447 70.6238 252.431 69.9174H254.44C254.462 70.2466 254.556 70.5215 254.723 70.742C254.892 70.9593 255.117 71.1239 255.398 71.2358C255.683 71.3445 256.004 71.3988 256.362 71.3988C256.714 71.3988 257.019 71.3477 257.278 71.2454C257.54 71.1431 257.743 71.0009 257.887 70.8187C258.03 70.6365 258.102 70.4272 258.102 70.1907C258.102 69.9702 258.037 69.7848 257.906 69.6346C257.778 69.4844 257.589 69.3565 257.34 69.2511C257.094 69.1456 256.792 69.0497 256.434 68.9634L255.365 68.695C254.537 68.4936 253.884 68.1788 253.404 67.7505C252.925 67.3223 252.687 66.7454 252.69 66.0199C252.687 65.4254 252.845 64.9061 253.164 64.4618C253.487 64.0176 253.93 63.6708 254.492 63.4215C255.055 63.1722 255.694 63.0476 256.41 63.0476C257.139 63.0476 257.775 63.1722 258.318 63.4215C258.865 63.6708 259.29 64.0176 259.593 64.4618C259.897 64.9061 260.053 65.4206 260.063 66.0055H258.074ZM261.555 75.7614V65.6364H263.569V66.8732H263.66C263.749 66.6751 263.879 66.4737 264.048 66.2692C264.221 66.0614 264.444 65.8888 264.719 65.7514C264.997 65.6108 265.343 65.5405 265.755 65.5405C266.292 65.5405 266.787 65.6811 267.241 65.9624C267.695 66.2404 268.058 66.6607 268.329 67.2232C268.601 67.7825 268.737 68.484 268.737 69.3278C268.737 70.1491 268.604 70.8427 268.339 71.4084C268.077 71.9709 267.719 72.3975 267.265 72.6884C266.814 72.976 266.309 73.1199 265.75 73.1199C265.354 73.1199 265.017 73.0543 264.738 72.9233C264.464 72.7923 264.238 72.6277 264.062 72.4295C263.887 72.2282 263.752 72.0252 263.66 71.8207H263.597V75.7614H261.555ZM263.554 69.3182C263.554 69.756 263.615 70.138 263.737 70.464C263.858 70.79 264.034 71.044 264.264 71.2262C264.494 71.4052 264.774 71.4947 265.103 71.4947C265.435 71.4947 265.716 71.4036 265.947 71.2214C266.177 71.036 266.351 70.7804 266.469 70.4544C266.591 70.1252 266.651 69.7464 266.651 69.3182C266.651 68.8931 266.592 68.5192 266.474 68.1964C266.356 67.8736 266.181 67.6211 265.951 67.4389C265.721 67.2567 265.438 67.1657 265.103 67.1657C264.77 67.1657 264.489 67.2536 264.259 67.4293C264.032 67.6051 263.858 67.8544 263.737 68.1772C263.615 68.5 263.554 68.8803 263.554 69.3182ZM272.198 73.139C271.728 73.139 271.309 73.0575 270.942 72.8945C270.574 72.7283 270.284 72.4838 270.069 72.161C269.858 71.835 269.753 71.4292 269.753 70.9434C269.753 70.5343 269.828 70.1907 269.978 69.9126C270.129 69.6346 270.333 69.4109 270.592 69.2415C270.851 69.0721 271.145 68.9442 271.474 68.858C271.806 68.7717 272.155 68.7109 272.519 68.6758C272.947 68.631 273.293 68.5895 273.555 68.5511C273.817 68.5096 274.007 68.4489 274.125 68.369C274.243 68.2891 274.303 68.1708 274.303 68.0142V67.9854C274.303 67.6818 274.207 67.4469 274.015 67.2807C273.826 67.1145 273.558 67.0314 273.21 67.0314C272.842 67.0314 272.55 67.1129 272.332 67.2759C272.115 67.4357 271.971 67.6371 271.901 67.88L270.012 67.7266C270.108 67.2791 270.296 66.8924 270.578 66.5664C270.859 66.2372 271.222 65.9847 271.666 65.8089C272.113 65.63 272.631 65.5405 273.219 65.5405C273.628 65.5405 274.02 65.5884 274.394 65.6843C274.771 65.7802 275.105 65.9288 275.396 66.1301C275.69 66.3315 275.921 66.5904 276.091 66.9068C276.26 67.22 276.345 67.5955 276.345 68.0334V73H274.408V71.9789H274.35C274.232 72.209 274.074 72.4119 273.876 72.5877C273.678 72.7603 273.44 72.8961 273.162 72.9952C272.884 73.0911 272.562 73.139 272.198 73.139ZM272.783 71.7296C273.083 71.7296 273.349 71.6705 273.579 71.5522C273.809 71.4308 273.989 71.2678 274.12 71.0632C274.251 70.8587 274.317 70.627 274.317 70.3681V69.5866C274.253 69.6282 274.165 69.6665 274.053 69.7017C273.945 69.7337 273.822 69.764 273.684 69.7928C273.547 69.8184 273.409 69.8423 273.272 69.8647C273.134 69.8839 273.01 69.9015 272.898 69.9174C272.658 69.9526 272.449 70.0085 272.27 70.0852C272.091 70.1619 271.952 70.2658 271.853 70.3968C271.754 70.5247 271.704 70.6845 271.704 70.8762C271.704 71.1543 271.805 71.3668 272.006 71.5138C272.211 71.6577 272.47 71.7296 272.783 71.7296ZM281.256 73.1438C280.502 73.1438 279.853 72.984 279.31 72.6644C278.77 72.3416 278.354 71.8942 278.063 71.3221C277.776 70.75 277.632 70.0916 277.632 69.3469C277.632 68.5927 277.777 67.9311 278.068 67.3622C278.362 66.7901 278.779 66.3443 279.32 66.0247C279.86 65.7019 280.502 65.5405 281.247 65.5405C281.889 65.5405 282.452 65.6571 282.934 65.8904C283.417 66.1238 283.799 66.4513 284.08 66.8732C284.361 67.2951 284.516 67.7905 284.545 68.3594H282.618C282.563 67.9918 282.42 67.6962 282.186 67.4725C281.956 67.2456 281.654 67.1321 281.28 67.1321C280.964 67.1321 280.687 67.2184 280.451 67.391C280.218 67.5604 280.035 67.8081 279.904 68.1341C279.773 68.46 279.708 68.8548 279.708 69.3182C279.708 69.788 279.772 70.1875 279.9 70.5167C280.031 70.8459 280.214 71.0968 280.451 71.2694C280.687 71.4419 280.964 71.5282 281.28 71.5282C281.514 71.5282 281.723 71.4803 281.908 71.3844C282.097 71.2885 282.252 71.1495 282.373 70.9673C282.498 70.782 282.579 70.5598 282.618 70.301H284.545C284.513 70.8635 284.36 71.3588 284.085 71.7871C283.813 72.2122 283.438 72.5446 282.958 72.7843C282.479 73.024 281.911 73.1438 281.256 73.1438ZM289.208 73.1438C288.451 73.1438 287.799 72.9904 287.252 72.6836C286.709 72.3736 286.29 71.9357 285.996 71.37C285.702 70.8011 285.555 70.1284 285.555 69.3517C285.555 68.5943 285.702 67.9295 285.996 67.3574C286.29 66.7853 286.704 66.3395 287.238 66.0199C287.775 65.7003 288.405 65.5405 289.127 65.5405C289.613 65.5405 290.065 65.6188 290.484 65.7754C290.905 65.9288 291.273 66.1605 291.586 66.4705C291.903 66.7805 292.149 67.1705 292.325 67.6403C292.5 68.1069 292.588 68.6534 292.588 69.2798V69.8407H286.37V68.5751H290.666C290.666 68.2811 290.602 68.0206 290.474 67.7937C290.346 67.5668 290.169 67.3894 289.942 67.2615C289.718 67.1305 289.458 67.065 289.16 67.065C288.85 67.065 288.576 67.1369 288.336 67.2807C288.099 67.4213 287.914 67.6115 287.78 67.8512C287.646 68.0877 287.577 68.3514 287.574 68.6422V69.8455C287.574 70.2099 287.641 70.5247 287.775 70.79C287.912 71.0552 288.106 71.2598 288.355 71.4036C288.604 71.5474 288.9 71.6193 289.242 71.6193C289.469 71.6193 289.677 71.5874 289.865 71.5234C290.054 71.4595 290.215 71.3636 290.349 71.2358C290.484 71.108 290.586 70.9513 290.656 70.766L292.545 70.8906C292.449 71.3445 292.253 71.7408 291.955 72.0795C291.661 72.4151 291.281 72.6772 290.814 72.8658C290.351 73.0511 289.816 73.1438 289.208 73.1438Z" fill="black"/>
<path d="M81.5 44.5L59.2016 38.4903L65.1463 60.8061L81.5 44.5ZM44.9977 90.4049C43.9951 69.3495 53.3456 56.9175 65.0234 50.9114L63.1939 47.3543C50.0701 54.1041 39.9279 68.0335 41.0023 90.5951L44.9977 90.4049Z" fill="black"/>
<path d="M159.5 62.5L138.186 71.3908L156.543 85.4039L159.5 62.5ZM148.496 93.879C148.103 87.3855 148.917 81.9224 150.466 77.4654L146.688 76.1518C144.947 81.1605 144.082 87.1583 144.504 94.121L148.496 93.879Z" fill="black"/>
<path d="M187 53L203.989 68.6433L209.042 46.1089L187 53ZM241.5 94.9565C241.297 85.6601 236.697 77.3401 230.002 70.571C223.306 63.8008 214.403 58.459 205.262 55.0641L203.87 58.8138C212.563 62.0424 220.94 67.0966 227.158 73.3838C233.378 79.672 237.327 87.0708 237.5 95.0435L241.5 94.9565Z" fill="black"/>
<path d="M202 34.4718L225.025 36.2562L215.058 15.4238L202 34.4718ZM270.775 33.7317C264.866 26.5518 256.106 22.8594 246.658 21.6814C237.209 20.5031 226.909 21.812 217.627 24.7984L218.852 28.6062C227.68 25.7661 237.388 24.5564 246.163 25.6506C254.939 26.745 262.619 30.1159 267.686 36.2735L270.775 33.7317Z" fill="black"/>
</g>
</svg>
